<svg width="32" height="32" version="1.1" viewBox="0 0 32 32" xmlns="http://www.w3.org/2000/svg">
 <g transform="translate(.97313 -1.6894)" stroke-linecap="round" stroke-linejoin="round" stroke-miterlimit="2.3">
  <g stroke-width=".1">
   <path d="m8.6871 16a4.3523 4.3523 0 0 1-4.3523 4.3523 4.3523 4.3523 0 0 1-4.3523-4.3523 4.3523 4.3523 0 0 1 4.3523-4.3523 4.3523 4.3523 0 0 1 4.3523 4.3523z" fill="#1b5e63"/>
   <path d="m16.855 25.107a4.3523 4.3523 0 0 1-4.3522 4.3523 4.3523 4.3523 0 0 1-4.3523-4.3523 4.3523 4.3523 0 0 1 4.3523-4.3522 4.3523 4.3523 0 0 1 4.3522 4.3522z"/>
   <path d="m28.874 23.859a4.3523 4.3523 0 0 1-4.3522 4.3523 4.3523 4.3523 0 0 1-4.3523-4.3523 4.3523 4.3523 0 0 1 4.3523-4.3522 4.3523 4.3523 0 0 1 4.3522 4.3522z" fill="#1b5e63"/>
  </g>
  <path d="m26.104 26.4a14.5 14.5 0 0 1-15.655 2.9952 14.5 14.5 0 0 1-8.9474-13.191" fill="none" stroke="#1b5e63" stroke-width="3"/>
  <g>
   <path d="m6.6504 17.944c-1.1221 4.5496-0.2986 5.4074 4.3556 4.5496" fill="none" stroke="#1b5e63" stroke-width="3"/>
   <path d="m17.429 23.352a4.3523 4.3523 0 0 1-4.3522 4.3523 4.3523 4.3523 0 0 1-4.3523-4.3523 4.3523 4.3523 0 0 1 4.3523-4.3523 4.3523 4.3523 0 0 1 4.3522 4.3523z" fill="#1b5e63" stroke-width=".1"/>
   <path d="m15.435 24.482c3.1799 3.4418 4.3494 3.2267 6.196-1.1307" fill="none" stroke="#1b5e63" stroke-width="3"/>
  </g>
  <path d="m4.3349 20.352s2.7783 11.806 17.483 6.9177" fill="none" stroke="#1b5e63" stroke-width="4"/>
  <path d="m18.24 3.832c-0.3424 0.013123-0.61837 0.081925-0.80859 0.20508l-9.2813 6.0098 0.9668 0.38086c0.23842 0.11416 0.50328 0.26267 0.77539 0.43555l6.918-4.4883c0.26109-0.24066 0.55532-0.44994 0.83008-0.53906l2.5801-1.6738c-0.77-0.23686-1.4551-0.35021-1.9805-0.33008zm5.1738 1.8359-0.71094 0.46094c0.96414 1.0597 6.3191 7.131 6.0098 11.025l0.21094 0.07031c0.17034 0.30869 0.35618 0.64121 0.55469 0.99219-0.15397-0.33654-0.30154-0.65773-0.44141-0.95508l-0.28711-0.95703c0.32077 0.69851 0.61454 1.4183 0.87109 2.1641 0.009765-3.4435-1.3115-7.0285-3.1211-9.6523l-0.0059-0.017578-0.0078-0.00195c-0.93341-1.3491-1.9937-2.4472-3.0722-3.1289zm6.207 12.801c-0.05102-0.08969-0.09332-0.16486-0.14258-0.25195 0.03384 0.07397 0.06511 0.13898 0.09961 0.21484 0.0037 0.0032 0.04297 0.03711 0.04297 0.03711zm-0.04297-0.03711c-0.07165-0.06197-0.83506-0.71504-1.9707-1.6406l1.0059 0.33008c-1.666-5.3584-8.1126-7.702-10.064-8.2988l-1.3906 0.90234-5.8066 3.3359c0.46447 1.1944 0.83918 1.8155 0 4 0 0 4.1567-2.1491 7.7012 2.1895 0 0 1.2093-1.9966 4.3613-2.5547 1.5966-0.28814 3.5697 0.13827 6.2012 1.8164-0.01295-0.02854-0.02425-0.0518-0.03711-0.08008z" fill="#3ace72" stroke="#3ace72" stroke-width=".9"/>
 </g>
</svg>
