<svg width="32" height="32" version="1.1" viewBox="0 0 32 32" xmlns="http://www.w3.org/2000/svg">
 <path d="m9.7621 13.512c-0.41807 0.08429-0.76599-0.07248-1.1637-0.1293-0.51302-0.07329-1.0956 0-1.6162 0-0.7792 0-1.4961-0.07855-2.1334 0.45255-0.26681 0.22234-0.19786 0.35392-0.32325 0.6465-0.030607 0.07142-0.098692 0.12253-0.1293 0.19395-0.035001 0.08167-0.0431 0.1724-0.06465 0.2586-0.0431 0.1293-0.072901 0.26382-0.1293 0.3879-0.051997 0.11439-0.157 0.20315-0.19395 0.32325-0.48893 1.589 0.34863-0.47712-0.19395 0.96975-0.074523 0.19873-0.19148 0.3805-0.2586 0.58185-0.041452 0.12436-0.034288 0.26038-0.06465 0.3879-0.077487 0.32545-0.18968 0.64238-0.2586 0.96975-0.017758 0.08435 0.016905 0.17407 0 0.2586-0.18824 0.9412-0.090073-0.15909-0.19395 0.7758-0.03526 0.31734 0 0.74236 0 1.0344v2.0041c0 1.037-0.19389 2.5602 0.32325 3.4911 0.27119 0.48815 0.90351 0.75463 1.3576 0.96975 1.0249 0.4855 0.94878 0.59529 2.586 1.099 0.41655 0.12817 0.87152 0.08304 1.293 0.19395 0.40249 0.10592 0.76313 0.33957 1.1637 0.45255 0.44339 0.12506 0.90732 0.16147 1.3576 0.2586 0.64894 0.13997 1.2851 0.34082 1.9395 0.45255 0.23367 0.03989 0.47609-0.03066 0.71115 0 0.26432 0.03448 0.51168 0.15793 0.7758 0.19395 0.42705 0.05823 0.862 0 1.293 0h1.7455c0.50547 0 2.2344 0.10878 2.6506-0.06465 0.12737-0.05307 0.20344-0.19014 0.32325-0.2586 0.18428-0.1053 0.39201-0.16368 0.58185-0.2586 0.28459-0.1423 0.55586-0.31025 0.84045-0.45255 0.18984-0.09492 0.40332-0.14383 0.58185-0.2586 0.12818-0.0824 0.20247-0.23034 0.32325-0.32325 0.16114-0.12396 0.35004-0.20753 0.5172-0.32325 0.70723-0.48962 0.75306-0.90348 1.4223-1.8102 0.65706-0.89021 1.4698-1.7267 1.8748-2.7799 0.28159-0.73214 0.37107-1.5283 0.6465-2.2627 0.15908-0.42421 0.46059-0.79181 0.58185-1.2283 0.09822-0.35359 0.01416-0.73555 0.06465-1.099 0.05756-0.41445 0.2067-0.81315 0.2586-1.2283 0.07752-0.62012 0-1.2499 0-1.8748v-2.9092-2.586c0-0.3017 0.04588-0.60691 0-0.9051-0.02072-0.13471-0.10858-0.25319-0.1293-0.3879-0.03932-0.25559 0.04251-0.52072 0-0.7758-0.025793-0.15475-0.10351-0.2978-0.1293-0.45255-0.10472-0.62831 0.16333-6.57e-4 -0.064649-0.7758-0.065491-0.22267-0.18192-0.42743-0.2586-0.6465-0.30138-0.86109-0.090989-0.6441-0.6465-1.6162-0.083505-0.14613-0.22226-0.25325-0.32325-0.3879-0.093239-0.12432-0.15407-0.27291-0.2586-0.3879-0.11322-0.12454-0.26888-0.20424-0.3879-0.32325-0.3017-0.3017-0.32325-0.49565-0.71115-0.71115-0.24489-0.13605-0.51675-0.21658-0.7758-0.32325-0.97001-0.39942-1.9281-0.76575-2.9739-0.84045-0.51022-0.036444-1.936-0.088123-2.3274 0.1293-0.78242 0.43468-1.823 1.2928-2.392 2.0041-0.09031 0.11288-0.10992 0.27026-0.19395 0.3879-0.3239 0.45346-0.68081 0.76965-0.9051 1.293-0.0618 0.1442-0.07103 0.30688-0.1293 0.45255-0.07159 0.17896-0.18941 0.3373-0.2586 0.5172-0.03945 0.10256-0.0431 0.2155-0.06465 0.32325-0.0862 0.23705-0.15616 0.48065-0.2586 0.71115-0.06281 0.14132-0.40348 0.66054-0.45255 0.84045-0.02835 0.10395 0.02613 0.21872 0 0.32325-0.0398 0.15922-0.14568 0.29569-0.19395 0.45255-0.03855 0.12529-0.0232 0.26354-0.06465 0.3879-0.02457 0.073712-0.10697 0.11953-0.1293 0.19395-0.04379 0.14595-0.0081 0.31107-0.06465 0.45255-0.03396 0.084889-0.15306 0.11217-0.19395 0.19395-0.04914 0.09828-0.01013 0.22784-0.06465 0.32325-0.03855 0.06746-0.13901 0.07436-0.19395 0.1293-0.07619 0.07619-0.13684 0.16723-0.19395 0.2586-0.05108 0.08173-0.0862 0.1724-0.1293 0.2586-0.06465 0.1724-0.09745 0.36039-0.19395 0.5172-0.07986 0.12978-0.22201 0.20936-0.32325 0.32325-0.13195 0.14845-0.50502 0.83639-0.71115 0.9051-0.09772 0.03257-0.30418-0.05581-0.3879 0-0.15706 0.1047-0.19892 0.1467-0.3879 0.19395-0.04181 0.01045-0.09075-0.01928-0.1293 0-0.05452 0.02726-0.07858 0.09549-0.1293 0.1293-0.01718 0.01145-0.91752 0.06465-1.0344 0.06465" fill="#fff" stroke="#fff" stroke-linecap="round" stroke-linejoin="round" stroke-miterlimit="2.3" stroke-width="3" style="paint-order:stroke markers fill"/>
 <g>
  <g stroke="#fff" stroke-linecap="round" stroke-linejoin="round" stroke-miterlimit="2.3" stroke-width="3">
   <path d="m17.714 6.9822c-0.18662 0.16297-0.37552 0.90419-0.2586 1.099 0.03998 0.066627 0.11788 0.11345 0.19395 0.1293 0.44753 0.093236 0.90156 0.16285 1.3576 0.19395 1.2318 0.083988 2.5132 0 3.7497 0 0.52968 0 1.0348 0.021479 1.5516-0.06465 0.23093-0.038489 0.48205 0.050911 0.71115 0 0.17009-0.037797 0.57438-0.43762 0.6465-0.58185 0.04819-0.096374 0-0.2155 0-0.32325 0-0.1293 0.05782-0.27225 0-0.3879-0.04855-0.097102-0.54443-0.40615-0.6465-0.45255-0.51333-0.23333-1.1349-0.1293-1.6809-0.1293h-1.6809-3.2325" style="paint-order:stroke markers fill"/>
   <path d="m14.158 12.865 9.6328 0.2586" style="paint-order:stroke markers fill"/>
   <path d="m14.158 12.865c1.3418 0.03964 0.34902 2.0113 1.099 2.5213 0.74217 0.50468 2.6539 0.84442 3.3618 0.9051 0.8159 0.06994 1.6378 0 2.4567 0 0.88355 0 1.7707 0.07999 2.6506 0 6.9749-0.63409 1.3912-0.25295 3.5557-0.6465 0.06361-0.01157 0.13056 0.01268 0.19395 0 0.14272-0.02854 0.22492-0.17666 0.32325-0.2586 0.23547-0.19622 0.61807-0.47058 0.5172-0.84045-0.04318-0.15834-0.07225-0.34244-0.19395-0.45255-0.95547-0.86447-1.1337-0.70341-2.1981-1.1637-1.9842-0.85804-1.0035-0.70552-3.6204-1.293-0.29512-0.06625-0.6059-0.02032-0.9051-0.06465-0.28441-0.04214-0.55535-0.15676-0.84045-0.19395-0.21369-0.02787-0.431 0-0.6465 0-0.28015 0-0.56411-0.04606-0.84045 0-0.2488 0.04147-0.4741 0.1724-0.71115 0.2586-0.36635 0.0431-0.73433 0.07404-1.099 0.1293-0.34685 0.05255-0.6859 0.15374-1.0344 0.19395-1.4148 0-0.29272-0.09637-0.7758 0.06465-0.03433 0.01145-0.18993-0.02289-0.19395 0-0.05013 0.28551-0.01556 0.57955-0.02334 0.86932" style="paint-order:stroke markers fill"/>
   <path d="m16 19.912c-0.72777-0.0195-1.5021-0.16858-2.2296-0.06465-0.10634 0.01519-0.08462 0.79591 0 0.84045 0.36183 0.19044 0.7729 0.26765 1.1637 0.3879 0.72996 0.2246 1.4552 0.4691 2.1981 0.6465 1.74 0.41552 5.3931 0.81009 6.6589 0.96975 0.8831 0.11138 1.764 0.24547 2.6506 0.32325 0.34348 0.03013 0.6896 0 1.0344 0 0.1293 0 0.26246 0.03136 0.3879 0 0.19509-0.04877 0.33568-0.94489 0.2586-1.099-0.06171-0.12342-0.15085-0.23705-0.2586-0.32325-0.11288-0.09031-0.25343-0.14087-0.3879-0.19395-2.1403-0.84487-1.6039-0.67967-3.4911-1.099-0.3012-0.06693-0.59844-0.15988-0.9051-0.19395-0.49262-0.05474-0.9913 0-1.4869 0h-3.685" style="paint-order:stroke markers fill"/>
  </g>
  <path d="m8.3398 11.896c-0.038804 0.64119-0.20918 1.8814 0 2.4567 0.1219 0.33524 0.33975 0.63134 0.45255 0.96975 0.06171 0.18513 0.014369 0.39329 0.06465 0.58185 0.037248 0.13968 0.15144 0.24973 0.19395 0.3879 0.044813 0.14564 0.034765 0.30313 0.06465 0.45255 0.10147 0.50736 0.20584 1.0661 0.3879 1.5516 0.95653 2.1522-0.17446-0.52339 0.32325 0.96975 0.045714 0.13714 0.15241 0.24943 0.19395 0.3879 0.05607 0.18691 0.01104 0.39421 0.06465 0.58185 0.02648 0.09267 0.10592 0.1651 0.1293 0.2586 0.07787 0.31148-0.01965 0.6747 0.06465 0.96975 0.17749 0.6212 0.1293-0.13543 0.1293 0.58185v2.8446c0 0.11077-0.03641 0.6465 0.06465 0.6465 0.02155 0-8e-3 -0.04464 0-0.06465 0.03579-0.08948 0.1104-0.1641 0.1293-0.2586 0.04668-0.2334 0.05431-0.47335 0.06465-0.71115 0.09209-2.1182-0.22347 1.1118 0.2586-2.2627 0.15594-0.44489 0.0085-0.90808 0.06465-1.3576 0.04089-0.3271 0.15306-0.64264 0.19395-0.96975 0.02406-0.19245 0-0.3879 0-0.58185v-1.8748c0-0.28015-0.05494-0.56574 0-0.84045 0.05748-0.28742 0.19822-0.55362 0.2586-0.84045 0.07103-0.3374 0-0.6896 0-1.0344v-2.6506c0-0.02861 0.06465-1.2929 0.06465-0.7242" style="paint-order:stroke markers fill"/>
 </g>
</svg>
