<?xml version="1.0" encoding="UTF-8" standalone="no"?>
<!-- Created with Inkscape (http://www.inkscape.org/) -->

<svg
   width="16"
   height="16"
   viewBox="0 0 16 16"
   version="1.1"
   id="svg1"
   inkscape:version="1.3.2 (091e20ef0f, 2023-11-25)"
   sodipodi:docname="cesky.svg"
   xmlns:inkscape="http://www.inkscape.org/namespaces/inkscape"
   xmlns:sodipodi="http://sodipodi.sourceforge.net/DTD/sodipodi-0.dtd"
   xmlns="http://www.w3.org/2000/svg"
   xmlns:svg="http://www.w3.org/2000/svg">
  <sodipodi:namedview
     id="namedview1"
     pagecolor="#ffffff"
     bordercolor="#000000"
     borderopacity="0.25"
     inkscape:showpageshadow="2"
     inkscape:pageopacity="0.0"
     inkscape:pagecheckerboard="0"
     inkscape:deskcolor="#d1d1d1"
     inkscape:document-units="px"
     inkscape:zoom="5.6568543"
     inkscape:cx="26.428116"
     inkscape:cy="-23.688077"
     inkscape:window-width="1560"
     inkscape:window-height="872"
     inkscape:window-x="0"
     inkscape:window-y="0"
     inkscape:window-maximized="1"
     inkscape:current-layer="layer1" />
  <defs
     id="defs1" />
  <g
     inkscape:label="Vrstva 1"
     inkscape:groupmode="layer"
     id="layer1">
    <circle
       style="display:inline;fill:#002371;fill-opacity:1;fill-rule:evenodd;stroke:none;stroke-width:3.6;stroke-linecap:square;stroke-linejoin:bevel"
       id="circle2"
       transform="scale(-1)"
       cx="-8"
       cy="-8"
       r="8" />
    <path
       d="M 9.65625,0.17773437 A 8,8 0 0 0 8,0 8,8 0 0 0 6.34375,0.19335937 V 15.806641 A 8,8 0 0 0 8,16 8,8 0 0 0 9.65625,15.806641 Z"
       style="display:inline;fill:#ffffff;fill-rule:evenodd;stroke-width:3.6;stroke-linecap:square;stroke-linejoin:bevel"
       id="path2" />
    <path
       id="path3"
       style="display:inline;fill:#ffffff;fill-rule:evenodd;stroke-width:3.6;stroke-linecap:square;stroke-linejoin:bevel"
       d="m 2.5449219,2.1484375 c 0,0 -0.499071,0.4993195 -0.7167969,0.7617187 C 1.6118774,3.1707738 1.2421875,3.7167969 1.2421875,3.7167969 L 3.8691406,6.34375 H 0.19335938 A 8,8 0 0 0 0,8 8,8 0 0 0 0.19335938,9.65625 H 3.8691406 l -2.6269531,2.626953 c 0,0 0.3696899,0.546023 0.5859375,0.806641 0.2177266,0.262398 0.7167969,0.761719 0.7167969,0.761718 L 6.34375,10.052734 V 9.65625 h 3.3125 v 0.396484 l 3.798828,3.798828 c 0,0 0.499071,-0.49932 0.716797,-0.761718 0.216248,-0.260618 0.585938,-0.806641 0.585937,-0.806641 L 12.130859,9.65625 h 3.675782 A 8,8 0 0 0 16,8 8,8 0 0 0 15.822266,6.34375 h -3.691407 l 2.626953,-2.6269531 c 1e-6,0 -0.369689,-0.5460231 -0.585937,-0.8066407 C 13.954149,2.647757 13.455078,2.1484375 13.455078,2.1484375 L 9.65625,5.9472656 V 6.34375 H 6.34375 V 5.9472656 Z" />
    <path
       style="color:#000000;display:inline;fill:#cd1d2e;fill-rule:evenodd;stroke-linecap:square;-inkscape-stroke:none"
       d="m 14.036245,2.7498815 -0.247182,0.2364466 -3.154297,3.0703125 -0.28711,0.2792969 0.558594,0.5742187 0.287109,-0.2792968 3.154297,-3.0722656 0.173297,-0.1929413 c 0,0 -0.149489,-0.2052773 -0.227935,-0.3050783 C 14.20999,2.9549443 14.036245,2.7498815 14.036245,2.7498815 Z"
       id="path4-7"
       sodipodi:nodetypes="ccccccccsc" />
    <path
       style="color:#000000;fill:#cd1d2e;fill-rule:evenodd;stroke-linecap:square;-inkscape-stroke:none"
       d="m 10.455078,8.8105469 -0.5624999,0.5683594 0.2832029,0.28125 3.611328,3.5781247 0.138332,0.136581 0.251734,-0.291309 0.25468,-0.326323 -0.08225,-0.08535 -3.611328,-3.578125 z"
       id="path4-7-2"
       sodipodi:nodetypes="cccccccccc" />
    <path
       style="color:#000000;fill:#cd1d2e;fill-rule:evenodd;stroke-linecap:square;-inkscape-stroke:none"
       d="M 5.7128906,8.296875 5.4296875,8.5800781 1.6269531,12.398438 1.4395684,12.57829 c 0,0 0.1428919,0.200756 0.2231088,0.304162 0.084746,0.109245 0.2717795,0.33379 0.2717795,0.33379 l 0.2589027,-0.251398 3.8046875,-3.8203127 0.28125,-0.2832032 z"
       id="path4-7-3"
       sodipodi:nodetypes="ccccsccccc" />
    <path
       style="color:#000000;fill:#cd1d2e;fill-rule:evenodd;stroke-linecap:square;-inkscape-stroke:none"
       d="m 1.9458941,2.7704874 c 0,0 -0.1685257,0.199984 -0.2489745,0.3029339 C 1.6160928,3.1768549 1.4620674,3.3896381 1.4620674,3.3896381 L 1.6308594,3.5585938 4.7910156,6.6308594 5.0761719,6.9101562 5.6347656,6.3359375 5.3476562,6.0566406 2.1894531,2.9863281 Z"
       id="path4"
       sodipodi:nodetypes="cscccccccc" />
    <rect
       style="display:inline;fill:#ffffff;fill-opacity:1;fill-rule:evenodd;stroke:none;stroke-width:0.8;stroke-linecap:square;stroke-linejoin:miter;stroke-dasharray:none;stroke-opacity:1"
       id="rect4"
       width="11.018799"
       height="3.3125"
       x="2.9499512"
       y="6.34375" />
    <path
       id="rect3"
       style="display:inline;fill:#cd1d2e;fill-opacity:1;fill-rule:evenodd;stroke-width:4.55127;stroke-linecap:square;stroke-linejoin:bevel"
       d="M 6.8164062,0 V 6.8164062 H 0 V 9.1835938 H 6.8164062 V 16 H 9.1835938 V 9.1835938 H 16 V 6.8164062 H 9.1835938 V 0 Z" />
  </g>
</svg>
