<?xml version="1.0" encoding="UTF-8" standalone="no"?>
<svg
   id="svg1918"
   width="32"
   height="32"
   version="1.1"
   viewBox="0 0 8.4667 8.4667"
   sodipodi:docname="jazyk2.svg"
   inkscape:version="1.3.2 (091e20ef0f, 2023-11-25, custom)"
   xmlns:inkscape="http://www.inkscape.org/namespaces/inkscape"
   xmlns:sodipodi="http://sodipodi.sourceforge.net/DTD/sodipodi-0.dtd"
   xmlns="http://www.w3.org/2000/svg"
   xmlns:svg="http://www.w3.org/2000/svg">
  <defs
     id="defs1" />
  <sodipodi:namedview
     id="namedview1"
     pagecolor="#ffffff"
     bordercolor="#000000"
     borderopacity="0.25"
     inkscape:showpageshadow="2"
     inkscape:pageopacity="0.0"
     inkscape:pagecheckerboard="0"
     inkscape:deskcolor="#d1d1d1"
     inkscape:zoom="8.4568466"
     inkscape:cx="1.6554634"
     inkscape:cy="1.3007212"
     inkscape:window-width="1560"
     inkscape:window-height="872"
     inkscape:window-x="0"
     inkscape:window-y="0"
     inkscape:window-maximized="1"
     inkscape:current-layer="svg1918" />
  <g
     id="layer1"
     fill="none"
     stroke="#fff"
     stroke-linecap="square"
     stroke-linejoin="round"
     stroke-width="0.78"
     style="stroke:#000000;stroke-width:0.965204;stroke-dasharray:none"
     transform="matrix(0.91011926,0.32216504,-0.32216504,0.91011926,1.7457847,-0.97814239)">
    <path
       id="path2689-3"
       style="stroke:#000000;stroke-width:1.0962;stroke-linecap:round;stroke-linejoin:round;stroke-dasharray:none;paint-order:stroke markers fill"
       d="m 0.73679,5.3863 c 2.263688,0.4930268 4.5880385,0.541951 6.9931,0 M 0.73679,2.932 c 2.2856587,-0.5065598 4.6159624,-0.5147058 6.9931,0 M 4.8497059,0.4390665 c 1.0827,2.2016 1.3691983,5.2377074 0.2340983,7.5432074 M 3.526669,0.45471996 C 2.443969,2.65632 2.3508996,5.6985946 3.4859996,8.0040946 M 8.0767002,4.2333002 c 0,2.1226512 -1.7207488,3.8434 -3.8434,3.8434 -2.1226512,0 -3.84339999,-1.7207488 -3.84339999,-3.8434 10e-9,-2.1226512 1.72074879,-3.84339998 3.84339999,-3.84339999 2.1226512,0 3.8434,1.72074879 3.8434,3.84339999 z"
       sodipodi:nodetypes="ccccccccsssss" />
  </g>
</svg>
