<?xml version="1.0" encoding="UTF-8" standalone="no"?>
<!-- Created with Inkscape (http://www.inkscape.org/) -->

<svg
   width="32"
   height="32"
   viewBox="0 0 32 32"
   version="1.1"
   id="svg1"
   inkscape:version="1.3 (0e150ed6c4, 2023-07-21)"
   sodipodi:docname="logo.svg"
   xmlns:inkscape="http://www.inkscape.org/namespaces/inkscape"
   xmlns:sodipodi="http://sodipodi.sourceforge.net/DTD/sodipodi-0.dtd"
   xmlns="http://www.w3.org/2000/svg"
   xmlns:svg="http://www.w3.org/2000/svg">
  <sodipodi:namedview
     id="namedview1"
     pagecolor="#7c7c7c"
     bordercolor="#000000"
     borderopacity="0.25"
     inkscape:showpageshadow="2"
     inkscape:pageopacity="0.0"
     inkscape:pagecheckerboard="0"
     inkscape:deskcolor="#d1d1d1"
     inkscape:document-units="px"
     inkscape:zoom="11.313709"
     inkscape:cx="29.389126"
     inkscape:cy="0.79549513"
     inkscape:window-width="1560"
     inkscape:window-height="876"
     inkscape:window-x="40"
     inkscape:window-y="24"
     inkscape:window-maximized="1"
     inkscape:current-layer="layer1"
     showgrid="false" />
  <defs
     id="defs1">
    <inkscape:path-effect
       effect="taper_stroke"
       id="path-effect1"
       is_visible="true"
       lpeversion="1"
       stroke_width="4"
       subpath="1"
       attach_start="0.2"
       end_offset="0.7"
       start_smoothing="0.5"
       end_smoothing="0.1"
       jointype="extrapolated"
       start_shape=""
       end_shape=""
       miter_limit="100" />
  </defs>
  <g
     inkscape:label="Vrstva 1"
     inkscape:groupmode="layer"
     id="layer1">
    <circle
       style="display:none;fill:none;stroke:#000000;stroke-width:0.100001;stroke-linecap:round;stroke-linejoin:round;stroke-miterlimit:2.3;stroke-dasharray:none"
       id="path1"
       cx="16"
       cy="16"
       r="16" />
    <path
       id="path2"
       style="stroke-width:0.100001;stroke-linecap:round;stroke-linejoin:round;stroke-miterlimit:2.3"
       d="M 8.6871023,16 A 4.3522506,4.3522506 0 0 1 4.3348517,20.352251 4.3522506,4.3522506 0 0 1 -0.01739883,16 4.3522506,4.3522506 0 0 1 4.3348517,11.647749 4.3522506,4.3522506 0 0 1 8.6871023,16 Z" />
    <path
       id="path2-5"
       style="stroke-width:0.100001;stroke-linecap:round;stroke-linejoin:round;stroke-miterlimit:2.3"
       d="m 16.854853,25.106548 a 4.3522506,4.3522506 0 0 1 -4.35225,4.352251 4.3522506,4.3522506 0 0 1 -4.352251,-4.352251 4.3522506,4.3522506 0 0 1 4.352251,-4.35225 4.3522506,4.3522506 0 0 1 4.35225,4.35225 z"
       inkscape:label="path2-5" />
    <path
       id="path2-5-2"
       style="stroke-width:0.100001;stroke-linecap:round;stroke-linejoin:round;stroke-miterlimit:2.3"
       d="m 28.873876,23.8591 a 4.3522506,4.3522506 0 0 1 -4.35225,4.352251 4.3522506,4.3522506 0 0 1 -4.352251,-4.352251 4.3522506,4.3522506 0 0 1 4.352251,-4.35225 4.3522506,4.3522506 0 0 1 4.35225,4.35225 z" />
    <path
       id="path3"
       style="fill:none;stroke:#000000;stroke-width:2.99999;stroke-linecap:round;stroke-linejoin:round;stroke-miterlimit:2.3"
       d="M 26.103851,26.400106 A 14.5,14.5 0 0 1 10.448826,29.395315 14.5,14.5 0 0 1 1.5014433,16.204583" />
    <path
       style="fill:none;stroke:#000000;stroke-width:3;stroke-linecap:round;stroke-linejoin:round;stroke-miterlimit:2.3;stroke-dasharray:none"
       d="m 6.650352,17.944438 c -1.1220818,4.549551 -0.2985982,5.4074 4.355566,4.549551"
       id="path5"
       sodipodi:nodetypes="cc" />
    <path
       id="path2-0"
       style="stroke-width:0.1;stroke-linecap:round;stroke-linejoin:round;stroke-miterlimit:2.3;stroke-dasharray:none"
       d="m 17.42879,23.351838 a 4.3522506,4.3522506 0 0 1 -4.35225,4.352251 4.3522506,4.3522506 0 0 1 -4.3522505,-4.352251 4.3522506,4.3522506 0 0 1 4.3522505,-4.352251 4.3522506,4.3522506 0 0 1 4.35225,4.352251 z" />
    <path
       style="fill:none;stroke:#000000;stroke-width:3;stroke-linecap:round;stroke-linejoin:round;stroke-miterlimit:2.3;stroke-dasharray:none"
       d="m 15.435122,24.481567 c 3.179906,3.441756 4.349429,3.226703 6.196033,-1.130728"
       id="path5-3"
       sodipodi:nodetypes="cc" />
    <path
       style="fill:none;stroke:#000000;stroke-width:4;stroke-linecap:round;stroke-linejoin:round;stroke-miterlimit:2.3"
       d="m 4.3348517,20.352251 c 0,0 2.7783044,11.806413 17.4833763,6.917675"
       id="path4"
       sodipodi:nodetypes="cc" />
    <path
       id="path10"
       style="display:inline;fill:#000000;stroke:#000000;stroke-width:0.9;stroke-linecap:round;stroke-linejoin:round;stroke-miterlimit:2.3;stroke-dasharray:none"
       d="m 18.240234,3.8320312 c -0.342401,0.013123 -0.61837,0.081925 -0.808593,0.2050782 l -9.2812504,6.0097656 0.9667969,0.380859 c 0.2384237,0.114165 0.503282,0.26267 0.7753906,0.435547 L 16.810547,6.375 C 17.071639,6.1343408 17.365869,5.9250645 17.640625,5.8359375 L 20.220703,4.1621094 C 19.450708,3.9252515 18.765642,3.8118945 18.240234,3.8320312 Z m 5.173828,1.8359376 -0.710937,0.4609374 c 0.964138,1.059695 6.319108,7.1310098 6.009766,11.0253908 l 0.210937,0.07031 c 0.170335,0.308694 0.35618,0.641211 0.554688,0.992188 -0.153966,-0.336536 -0.301543,-0.657733 -0.441407,-0.955078 L 28.75,16.304688 c 0.320768,0.698514 0.614544,1.418303 0.871094,2.164062 C 29.630859,15.025249 28.309571,11.440222 26.5,8.8164062 l -0.0059,-0.017578 -0.0078,-0.00195 C 25.552889,7.4477373 24.492644,6.3496651 23.414062,5.6679688 Z M 29.621094,18.46875 c -0.05102,-0.08969 -0.09332,-0.164863 -0.142578,-0.251953 0.03384,0.07397 0.06511,0.138977 0.09961,0.214844 0.0037,0.0032 0.04297,0.03711 0.04297,0.03711 z m -0.04297,-0.03711 c -0.07165,-0.06197 -0.835055,-0.715042 -1.970703,-1.640625 l 1.005859,0.330078 C 26.947253,11.762713 20.500709,9.4190733 18.548828,8.8222656 l -1.390625,0.9023438 -5.806641,3.3359376 c 0.464472,1.194373 0.83918,1.81552 0,4 0,0 4.15671,-2.149116 7.701172,2.189453 0,0 1.209275,-1.996616 4.361328,-2.554688 1.596581,-0.288139 3.569711,0.138271 6.201172,1.816407 -0.01295,-0.02854 -0.02425,-0.0518 -0.03711,-0.08008 z" />
  </g>
</svg>
