<?xml version="1.0" encoding="UTF-8" standalone="no"?>
<!-- Created with Inkscape (http://www.inkscape.org/) -->

<svg
   width="32"
   height="32"
   viewBox="0 0 32 32"
   version="1.1"
   id="svg1"
   inkscape:version="1.3 (0e150ed6c4, 2023-07-21)"
   sodipodi:docname="logo.svg"
   xmlns:inkscape="http://www.inkscape.org/namespaces/inkscape"
   xmlns:sodipodi="http://sodipodi.sourceforge.net/DTD/sodipodi-0.dtd"
   xmlns="http://www.w3.org/2000/svg"
   xmlns:svg="http://www.w3.org/2000/svg">
  <sodipodi:namedview
     id="namedview1"
     pagecolor="#7c7c7c"
     bordercolor="#000000"
     borderopacity="0.25"
     inkscape:showpageshadow="2"
     inkscape:pageopacity="0.0"
     inkscape:pagecheckerboard="0"
     inkscape:deskcolor="#d1d1d1"
     inkscape:document-units="px"
     inkscape:zoom="25.723306"
     inkscape:cx="24.433096"
     inkscape:cy="15.861103"
     inkscape:window-width="1560"
     inkscape:window-height="876"
     inkscape:window-x="40"
     inkscape:window-y="24"
     inkscape:window-maximized="1"
     inkscape:current-layer="layer1" />
  <defs
     id="defs1">
    <inkscape:path-effect
       effect="taper_stroke"
       id="path-effect1"
       is_visible="true"
       lpeversion="1"
       stroke_width="4"
       subpath="1"
       attach_start="0.2"
       end_offset="0.7"
       start_smoothing="0.5"
       end_smoothing="0.1"
       jointype="extrapolated"
       start_shape=""
       end_shape=""
       miter_limit="100" />
  </defs>
  <g
     inkscape:label="Vrstva 1"
     inkscape:groupmode="layer"
     id="layer1">
    <path
       id="path10"
       style="display:inline;fill:#000000;stroke:#000000;stroke-width:0.9;stroke-linecap:round;stroke-linejoin:round;stroke-miterlimit:2.3;stroke-dasharray:none"
       d="m 18.240234,3.5820312 c -0.342403,0.013123 -0.618368,0.081925 -0.808593,0.2050782 L 8.1503906,9.796875 9.1171875,10.177734 c 0.2384241,0.114165 0.5032814,0.26267 0.7753906,0.435547 L 16.810547,6.125 C 17.071639,5.8843404 17.365869,5.6750647 17.640625,5.5859375 L 20.220703,3.9121094 C 19.450706,3.6752511 18.765642,3.5618943 18.240234,3.5820312 Z m 5.173828,1.8359376 -2.203124,1.4296874 c -1.424431,0.9243651 4.043528,2.8445108 5.485457,4.8000928 1.422815,1.92966 2.924739,6.571 2.924699,6.571001 C 29.635914,12.992769 26.591643,7.4262977 23.414062,5.4179688 Z M 29.621094,18.21875 c -0.699946,-2.174059 -1.616989,-2.827232 -4.712891,-4.973607 -2.360943,-1.636832 -7.75,-3.7705336 -7.75,-3.7705336 L 11.35223,12.810921 c 0.464472,1.194375 0.83918,1.815917 0,4.000401 0,0 4.156008,-2.150312 7.700478,2.188265 0,0 1.209293,-1.997077 4.361354,-2.555149 1.596583,-0.288141 3.569705,0.139143 6.201172,1.817281 0.0022,-0.01447 0.01461,-3.6e-4 0,0 0,0 0.01029,-0.02921 0.0059,-0.04297 z"
       sodipodi:nodetypes="scccccccscsaccaaccccccsa" />
    <circle
       style="display:none;fill:none;stroke:#000000;stroke-width:0.100001;stroke-linecap:round;stroke-linejoin:round;stroke-miterlimit:2.3;stroke-dasharray:none"
       id="path1"
       cx="16"
       cy="16"
       r="16" />
    <path
       id="path2"
       style="stroke-width:0.100001;stroke-linecap:round;stroke-linejoin:round;stroke-miterlimit:2.3"
       d="M 8.6871023,16 A 4.3522506,4.3522506 0 0 1 4.3348517,20.352251 4.3522506,4.3522506 0 0 1 -0.01739883,16 4.3522506,4.3522506 0 0 1 4.3348517,11.647749 4.3522506,4.3522506 0 0 1 8.6871023,16 Z" />
    <path
       id="path2-5"
       style="stroke-width:0.100001;stroke-linecap:round;stroke-linejoin:round;stroke-miterlimit:2.3"
       d="m 16.854853,25.106548 a 4.3522506,4.3522506 0 0 1 -4.35225,4.352251 4.3522506,4.3522506 0 0 1 -4.352251,-4.352251 4.3522506,4.3522506 0 0 1 4.352251,-4.35225 4.3522506,4.3522506 0 0 1 4.35225,4.35225 z"
       inkscape:label="path2-5" />
    <path
       id="path2-5-2"
       style="stroke-width:0.100001;stroke-linecap:round;stroke-linejoin:round;stroke-miterlimit:2.3"
       d="m 28.873876,23.8591 a 4.3522506,4.3522506 0 0 1 -4.35225,4.352251 4.3522506,4.3522506 0 0 1 -4.352251,-4.352251 4.3522506,4.3522506 0 0 1 4.352251,-4.35225 4.3522506,4.3522506 0 0 1 4.35225,4.35225 z" />
    <path
       id="path3"
       style="fill:none;stroke:#000000;stroke-width:2.99999;stroke-linecap:round;stroke-linejoin:round;stroke-miterlimit:2.3"
       d="M 26.103851,26.400106 A 14.5,14.5 0 0 1 10.448826,29.395315 14.5,14.5 0 0 1 1.5014433,16.204583" />
    <path
       style="fill:none;stroke:#000000;stroke-width:3;stroke-linecap:round;stroke-linejoin:round;stroke-miterlimit:2.3;stroke-dasharray:none"
       d="m 6.650352,17.944438 c -1.1220818,4.549551 -0.2985982,5.4074 4.355566,4.549551"
       id="path5"
       sodipodi:nodetypes="cc" />
    <path
       id="path2-0"
       style="stroke-width:0.1;stroke-linecap:round;stroke-linejoin:round;stroke-miterlimit:2.3;stroke-dasharray:none"
       d="m 17.42879,23.351838 a 4.3522506,4.3522506 0 0 1 -4.35225,4.352251 4.3522506,4.3522506 0 0 1 -4.3522505,-4.352251 4.3522506,4.3522506 0 0 1 4.3522505,-4.352251 4.3522506,4.3522506 0 0 1 4.35225,4.352251 z" />
    <path
       style="fill:none;stroke:#000000;stroke-width:3;stroke-linecap:round;stroke-linejoin:round;stroke-miterlimit:2.3;stroke-dasharray:none"
       d="m 15.435122,24.481567 c 3.179906,3.441756 4.349429,3.226703 6.196033,-1.130728"
       id="path5-3"
       sodipodi:nodetypes="cc" />
    <path
       style="fill:none;stroke:#000000;stroke-width:4;stroke-linecap:round;stroke-linejoin:round;stroke-miterlimit:2.3"
       d="m 4.3348517,20.352251 c 0,0 2.7783044,11.806413 17.4833763,6.917675"
       id="path4"
       sodipodi:nodetypes="cc" />
  </g>
</svg>
