<svg width="32" height="32" version="1.1" viewBox="0 0 32 32" xmlns="http://www.w3.org/2000/svg"><g transform="matrix(1.2449 0 0 1.2449 -3.9183 0)" fill="inherit" stroke-width=".80328"><path d="m16 0a8.2542 8.2542 0 0 0-8.2539 8.2539 8.2542 8.2542 0 0 0 8.2539 8.2539 8.2542 8.2542 0 0 0 8.2539-8.2539 8.2542 8.2542 0 0 0-8.2539-8.2539zm0 4.5625a3.6915 3.6915 0 0 1 3.6914 3.6914 3.6915 3.6915 0 0 1-3.6914 3.6914 3.6915 3.6915 0 0 1-3.6914-3.6914 3.6915 3.6915 0 0 1 3.6914-3.6914z"/><path d="m11.691 8.0625c-0.79514-0.027531-1.5687 0.26192-2.1504 0.80469-1.2108 1.131-1.2756 3.0294-0.14453 4.2402 0 0 3.6181 3.9681 3.6836 9.6387 0.05445 3.9439 5.9429 3.9458 6 2e-3 0.06464-5.4403 3.9221-10.344 3.9221-10.344 1.1311-1.2108 0.82788-2.2108-0.38299-3.3418-0.77004-0.70852-1.8536-0.96461-2.8594-0.67578-0.069408 1.871-1.5018 3.4073-3.3633 3.6074-0.08692 0.13548-0.17275 0.26966-0.25976 0.41016-0.07972-0.13436-0.1588-0.25971-0.23828-0.38867-2.0392-0.05454-3.6649-1.7218-3.668-3.7617 2e-3 -0.039101 0.0046-0.078168 0.0078-0.11719-0.17962-0.04149-0.36269-0.066335-0.54688-0.074219z" color="#000000" stroke-linecap="round" stroke-linejoin="round" stroke-miterlimit="2.3" stroke-width=".80328" style="-inkscape-stroke:none"/></g></svg>
