<svg width="32" height="32" version="1.1" viewBox="0 0 32 32" xmlns="http://www.w3.org/2000/svg"><path d="m16 0a16 16 0 0 0-16 16 16 16 0 0 0 16 16 16 16 0 0 0 16-16 16 16 0 0 0-16-16zm0.78711 2.9746c0.75545 0.021276 1.5319 0.13286 2.3281 0.33203 2.4114 0.60322 4.2734 1.7933 5.4395 3.5586 1.1935 1.7792 1.4832 3.9296 0.90234 6.2559-0.60289 2.4144-1.9022 4.1847-3.8379 5.0684-1.7064 0.779-3.7151 0.83882-5.9023 0.41016l-0.61914 2.0293a0.75041 0.74974 90 0 1-0.89648 0.50977l-3.3223-0.83008a0.75041 0.74974 90 0 1-0.55078-0.88672l1.1484-5.3145a0.75041 0.74974 90 0 1 0.91602-0.56836l1.1055 0.27734c2.1042 0.52637 3.7336 0.61865 4.832 0.36524a0.75041 0.74974 90 0 1 0.00586-0.001953c1.0342-0.23011 1.6449-0.8768 2.0098-2.3379 0.26078-1.0444 0.15506-1.8093-0.25391-2.4668a0.75041 0.74974 90 0 1-0.005859-0.0097656c-0.38749-0.64629-1.0306-1.1027-2.1035-1.3711-1.0774-0.26951-1.8833-0.18066-2.5488 0.18945-0.65993 0.36701-1.1029 0.96513-1.3574 1.9844a0.75041 0.74974 90 0 1-0.9082 0.54492l-3.5898-0.89648a0.75041 0.74974 90 0 1-0.54492-0.91016c0.36261-1.4522 1.0262-2.7028 1.9883-3.7031 0.96369-1.002 2.1729-1.6813 3.5625-2.0137a0.75041 0.74974 90 0 1 0.00586-0.0019531c0.70763-0.16326 1.4418-0.23417 2.1973-0.21289zm-5.291 18.695c0.24159 0.007852 0.4854 0.043188 0.72656 0.10352 0.84059 0.21027 1.552 0.73196 1.9961 1.4727 0.44715 0.7458 0.56978 1.634 0.35547 2.4922-0.21431 0.85824-0.73923 1.5817-1.4844 2.0293-0.74004 0.44449-1.6145 0.57356-2.4551 0.36328-0.85748-0.2145-1.5802-0.73857-2.0273-1.4844-0.44715-0.7458-0.56587-1.63-0.35156-2.4883 0.21431-0.85824 0.73533-1.5857 1.4805-2.0332 0.46571-0.27972 0.98567-0.43109 1.5195-0.45312 0.080079-0.003306 0.1597-0.004571 0.24024-0.001953z"/></svg>
