<?xml version="1.0" encoding="UTF-8"?>
<!-- Created with Inkscape (http://www.inkscape.org/) -->
<svg width="32" height="32" version="1.1" viewBox="0 0 32 32" xmlns="http://www.w3.org/2000/svg">
 <path d="m22.264 12.389c2.2884 1.3275 4.454 3.4646 7.1754 7.2119-4.1252 1.8221-7.0639 2.4736-9.6796 2.489m-9.7835-2.3431c-2.378-1.3163-4.5991-3.4699-7.4155-7.3479 4.0297-1.7799 6.9271-2.4428 9.4973-2.4869m7.7371 12.024c-1.3118 2.4113-3.4704 4.6523-7.3962 7.5033-1.687-3.8193-2.3706-6.6215-2.4748-9.0919m2.3578-10.423c1.3189-2.3585 3.4693-4.5677 7.3191-7.3636 1.7372 3.9329 2.4104 6.7874 2.4826 9.3116m-2.2215 5.1625a3.9984 3.9984 0 0 1-4.897 2.8273 3.9984 3.9984 0 0 1-2.8273-4.897 3.9984 3.9984 0 0 1 4.897-2.8273 3.9984 3.9984 0 0 1 2.8273 4.897z" fill="none" stroke="#000" stroke-linecap="round" stroke-linejoin="round" stroke-miterlimit="2.3" stroke-width="4" style="paint-order:normal"/>
</svg>
