<?xml version="1.0" encoding="UTF-8" standalone="no"?>
<!-- Created with Inkscape (http://www.inkscape.org/) -->

<svg
   width="32"
   height="32"
   version="1.1"
   viewBox="0 0 32 32"
   id="svg10"
   sodipodi:docname="scrollbar5.svg"
   inkscape:version="1.3.2 (091e20ef0f, 2023-11-25)"
   xml:space="preserve"
   xmlns:inkscape="http://www.inkscape.org/namespaces/inkscape"
   xmlns:sodipodi="http://sodipodi.sourceforge.net/DTD/sodipodi-0.dtd"
   xmlns="http://www.w3.org/2000/svg"
   xmlns:svg="http://www.w3.org/2000/svg"><defs
     id="defs10" /><sodipodi:namedview
     id="namedview10"
     pagecolor="#ffffff"
     bordercolor="#000000"
     borderopacity="0.25"
     inkscape:showpageshadow="2"
     inkscape:pageopacity="0.0"
     inkscape:pagecheckerboard="0"
     inkscape:deskcolor="#d1d1d1"
     inkscape:zoom="5.4140624"
     inkscape:cx="-36.663781"
     inkscape:cy="12.190476"
     inkscape:window-width="1560"
     inkscape:window-height="872"
     inkscape:window-x="0"
     inkscape:window-y="0"
     inkscape:window-maximized="1"
     inkscape:current-layer="svg10" /><path
     sodipodi:type="star"
     style="fill:#36d267;fill-opacity:1;fill-rule:evenodd;stroke:none;stroke-width:0.8;stroke-linecap:square"
     id="path9"
     inkscape:flatsided="false"
     sodipodi:sides="5"
     sodipodi:cx="16"
     sodipodi:cy="16"
     sodipodi:r1="18.14493"
     sodipodi:r2="10.433335"
     sodipodi:arg1="-0.78539816"
     sodipodi:arg2="-0.15707963"
     inkscape:rounded="0.12"
     inkscape:randomized="0"
     d="m 28.830403,3.1695971 c 0.97407,0.97407 -2.741015,9.8376869 -2.525519,11.1982699 0.215495,1.360583 6.487758,8.642359 5.862367,9.869759 -0.625392,1.2274 -10.203216,0.433152 -11.430616,1.058544 -1.2274,0.625391 -6.214544,8.840861 -7.575127,8.625366 C 11.800924,33.70604 9.5965878,24.351552 8.6225178,23.377482 7.6484478,22.403412 -1.7060405,20.199075 -1.9215357,18.838492 -2.1370309,17.477909 6.0784388,12.490765 6.7038302,11.263365 7.3292216,10.035965 6.5349745,0.45814049 7.7623743,-0.16725094 8.9897741,-0.79264237 16.27155,5.4796212 17.632133,5.6951164 c 1.360583,0.2154952 10.2242,-3.4995893 11.19827,-2.5255193 z"
     inkscape:transform-center-x="1.32281"
     inkscape:transform-center-y="-0.65906504"
     transform="matrix(0.58338237,0.2943165,-0.2943165,0.58338237,11.389273,3.0468257)" /></svg>
