<?xml version="1.0" encoding="UTF-8"?>
<!-- Created with Inkscape (http://www.inkscape.org/) -->
<svg width="32" height="32" version="1.1" viewBox="0 0 32 32" xmlns="http://www.w3.org/2000/svg">
 <g stroke-linecap="round" stroke-linejoin="round" stroke-miterlimit="2.3">
  <circle cx="16" cy="16" r="16" display="none" fill="none" stroke="#000" stroke-width=".1"/>
  <g fill="#36d267" stroke="#36d267">
   <g stroke-width=".07958">
    <path d="m10.975 14.656a3.4635 3.4635 0 0 1-3.4635 3.4635 3.4635 3.4635 0 0 1-3.4635-3.4635 3.4635 3.4635 0 0 1 3.4635-3.4635 3.4635 3.4635 0 0 1 3.4635 3.4635z"/>
    <path d="m17.475 21.903a3.4635 3.4635 0 0 1-3.4635 3.4635 3.4635 3.4635 0 0 1-3.4635-3.4635 3.4635 3.4635 0 0 1 3.4635-3.4635 3.4635 3.4635 0 0 1 3.4635 3.4635z"/>
    <path d="m27.039 20.91a3.4635 3.4635 0 0 1-3.4635 3.4635 3.4635 3.4635 0 0 1-3.4635-3.4635 3.4635 3.4635 0 0 1 3.4635-3.4635 3.4635 3.4635 0 0 1 3.4635 3.4635z"/>
   </g>
   <path d="m24.835 22.932a11.539 11.539 0 0 1-12.458 2.3836 11.539 11.539 0 0 1-7.1203-10.497" stroke-width="2.3874"/>
   <g>
    <path d="m9.3539 16.203c-0.89295 3.6205-0.23762 4.3032 3.4661 3.6205" stroke-width="2.3874"/>
    <path d="m17.931 20.506a3.4635 3.4635 0 0 1-3.4635 3.4635 3.4635 3.4635 0 0 1-3.4635-3.4635 3.4635 3.4635 0 0 1 3.4635-3.4635 3.4635 3.4635 0 0 1 3.4635 3.4635z" stroke-width=".079579"/>
    <path d="m16.345 21.405c2.5306 2.7389 3.4612 2.5678 4.9308-0.89983" stroke-width="2.3874"/>
   </g>
   <path d="m7.5112 18.119s2.211 9.3955 13.913 5.505" stroke-width="3.1832"/>
   <path d="m18.577 4.9724c-0.27248 0.010443-0.4921 0.065195-0.64347 0.1632l-7.386 4.7825 0.76937 0.30309c0.18974 0.09085 0.40051 0.20903 0.61705 0.34661l5.5053-3.5717c0.20778-0.19152 0.44192-0.35806 0.66057-0.42898l2.0532-1.332c-0.61276-0.18849-1.1579-0.2787-1.576-0.26267zm4.1173 1.461-0.56576 0.36681c0.76726 0.8433 5.0287 5.6748 4.7825 8.7739l0.16786 0.05595c0.13555 0.24566 0.28345 0.51027 0.44142 0.78958-0.12252-0.26781-0.23997-0.52342-0.35127-0.76005l-0.22848-0.7616c0.25527 0.55587 0.48905 1.1287 0.69321 1.7221 0.0078-2.7403-1.0437-5.5933-2.4837-7.6813l-0.0047-0.01399-0.0062-0.0016c-0.7428-1.0736-1.5865-1.9474-2.4449-2.4899zm4.9395 10.187c-0.0406-0.07138-0.07426-0.1312-0.11346-0.2005 0.02693 0.05887 0.05181 0.1106 0.07927 0.17097 0.0029 0.0025 0.0342 0.02953 0.0342 0.02953zm-0.0342-0.02953c-0.05702-0.04931-0.66453-0.56903-1.5683-1.3056l0.80046 0.26267c-1.3258-4.2642-6.4559-6.1292-8.0092-6.6042l-1.1067 0.71808-4.6209 2.6547c0.36962 0.95048 0.66781 1.4448 0 3.1832 0 0 3.3079-1.7103 6.1285 1.7424 0 0 0.96233-1.5889 3.4707-2.033 1.2705-0.2293 2.8408 0.11004 4.9349 1.4455-0.01031-0.02271-0.0193-0.04122-0.02953-0.06373z" stroke-width=".71622"/>
  </g>
 </g>
</svg>
