<svg width="128" height="128" version="1.1" viewBox="0 0 128 128" xmlns="http://www.w3.org/2000/svg"><path d="m51.583 10.072c-11.61 0-13.967 9.1172-13.967 9.1172h38.4c7.6176 0 14 6.3824 14 14v68.77s10.125-1.9999 10.125-12.423v-63.744c0-8.5825-7.33-15.72-18.126-15.72zm-13.967 25.117v60.77c0 3.324 2.676 6 6 6h30.4v-66.77z"/><path d="m25.49 27.19h50.525c3.324 0 6 2.676 6 6v79.886c0 3.324-2.676 6-6 6h-50.525c-3.324 0-6-2.676-6-6v-79.886c0-3.324 2.676-6 6-6z" color="#000000" stroke-linejoin="bevel" stroke-miterlimit="2.3" style="-inkscape-stroke:none;paint-order:stroke markers fill"/></svg>
