<?xml version="1.0" encoding="UTF-8"?>
<!-- Created with Inkscape (http://www.inkscape.org/) -->
<svg width="48" height="48" version="1.1" viewBox="0 0 48 48" xmlns="http://www.w3.org/2000/svg" xmlns:xlink="http://www.w3.org/1999/xlink">
 <defs>
  <linearGradient id="linearGradient4" x2="48" y1="12.79" y2="48" gradientTransform="matrix(.78781 0 0 1 5.0925 0)" gradientUnits="userSpaceOnUse">
   <stop stop-color="#3fc03f" offset="0"/>
   <stop stop-color="#2d913f" offset="1"/>
  </linearGradient>
  <linearGradient id="linearGradient6" x2="48" y1="12.79" y2="48" gradientUnits="userSpaceOnUse">
   <stop stop-color="#e2e22d" offset="0"/>
   <stop stop-color="#b48d24" offset="1"/>
  </linearGradient>
 </defs>
 <g fill-rule="evenodd">
  <rect x="5.0925" y="12.79" width="37.815" height="35.21" rx="2" ry="2.0003" fill="url(#linearGradient4)"/>
  <path d="m16.818 0.18164c-1.0682-0.0078957-2.1884 0.19252-3.2949 0.63672-1.2646 0.50766-2.3713 1.1671-3.0742 2.3965-0.70289 1.2294-0.55141 2.8549-0.03711 3.8789 1.0286 2.0479 2.7609 3.0895 4.5957 4.1914 1.4525 0.8723 3.0168 1.65 4.3887 2.2793v12.229h-14.304v9.2051h14.304v13.002h9.207v-13.002h14.304v-9.2051h-14.304v-12.229c1.3718-0.62926 2.9362-1.407 4.3887-2.2793 1.8348-1.1019 3.5671-2.1435 4.5957-4.1914 0.5143-1.024 0.66578-2.6495-0.03711-3.8789-0.70289-1.2294-1.8097-1.8888-3.0742-2.3965-1.2646-0.50766-2.548-0.69747-3.75-0.62109-1.202 0.076379-2.3233 0.42003-3.2598 0.98242-1.5959 0.95844-2.6698 2.3419-3.4668 3.752-0.797-1.41-1.8708-2.7935-3.4668-3.752-0.93648-0.5624-2.0578-0.90604-3.2598-0.98242-0.15025-0.009547-0.30248-0.014497-0.45508-0.015625zm-0.005859 4.9277c0.04612-0.00191 0.0905-0.00241 0.13281 0 0.38917 0.022162 0.68871 0.16226 1.0137 0.35742 0.64994 0.39031 1.3875 1.2899 1.9668 2.4434 0.05442 0.10834 0.06397 0.21555 0.11524 0.32617-0.84796-0.41818-1.6748-0.76735-2.459-1.2383-1.1276-0.67715-1.5766-1.1794-1.9922-1.584 0.48537-0.17583 0.89984-0.29131 1.2227-0.30469zm14.242 0c0.33848-0.019276 0.80076 0.10374 1.3555 0.30469-0.41561 0.40459-0.86462 0.90683-1.9922 1.584-0.78418 0.47093-1.611 0.8201-2.459 1.2383 0.05127-0.11063 0.06082-0.21783 0.11524-0.32617 0.57935-1.1535 1.3169-2.053 1.9668-2.4434 0.32496-0.19516 0.62451-0.33526 1.0137-0.35742z" fill="url(#linearGradient6)"/>
 </g>
</svg>
