<svg version="1.1" viewBox="0 0 508 285.75" xmlns="http://www.w3.org/2000/svg" xmlns:xlink="http://www.w3.org/1999/xlink"><defs><linearGradient id="o"><stop stop-color="#131636" offset="0"/><stop stop-color="#0f1a48" stop-opacity="0" offset="1"/></linearGradient><linearGradient id="q"><stop stop-color="#131636" offset="0"/><stop stop-color="#0d2157" stop-opacity="0" offset="1"/></linearGradient><linearGradient id="r"><stop stop-color="#1e0a22" offset="0"/><stop stop-color="#330f48" stop-opacity="0" offset="1"/></linearGradient><linearGradient id="s"><stop stop-color="#480f0f" offset="0"/><stop stop-color="#522e0b" offset="1"/></linearGradient><linearGradient id="u"><stop stop-color="#17543f" offset="0"/><stop stop-color="#176b29" offset="1"/></linearGradient><linearGradient id="h"><stop stop-color="#1f7458" offset="0"/><stop stop-color="#23a23e" offset="1"/></linearGradient><linearGradient id="l"><stop stop-color="#238464" offset="0"/><stop stop-color="#26b244" offset="1"/></linearGradient><linearGradient id="p" x1="254" x2="254" y2="285.75" gradientUnits="userSpaceOnUse"><stop stop-color="#002d76" stop-opacity="0" offset="0"/><stop stop-color="#460095" offset="1"/></linearGradient><linearGradient id="m" x2="508" y1="221.37" y2="221.37" gradientUnits="userSpaceOnUse"><stop stop-color="#103c36" offset="0"/><stop stop-color="#3fcd60" offset="1"/></linearGradient><linearGradient id="c" x1="132.48" x2="236.64" y1="86.37" y2="86.37" gradientUnits="userSpaceOnUse" xlink:href="#l"/><linearGradient id="b" x1="132.48" x2="236.64" y1="86.37" y2="86.37" gradientUnits="userSpaceOnUse" xlink:href="#h"/><linearGradient id="a" x1="132.48" x2="236.64" y1="86.37" y2="86.37" gradientUnits="userSpaceOnUse" xlink:href="#u"/><linearGradient id="t" x2="184.34" y1="285.75" y2="179.75" gradientTransform="matrix(1.471 0 0 1 -30.973 -1.2729)" gradientUnits="userSpaceOnUse"><stop stop-color="#050613" offset="0"/><stop stop-color="#040612" stop-opacity="0" offset="1"/></linearGradient><linearGradient id="g" x1="172.94" x2="192.1" y1="230.02" y2="221.17" gradientUnits="userSpaceOnUse" xlink:href="#s"/><linearGradient id="f" x1="182.52" x2="182.52" y1="215.64" y2="222.12" gradientTransform="matrix(1 0 0 1.5443 0 -117.37)" gradientUnits="userSpaceOnUse" xlink:href="#r"/><linearGradient id="e" x1="182.52" x2="182.08" y1="170.54" y2="192.65" gradientUnits="userSpaceOnUse" xlink:href="#q"/><linearGradient id="d" x1="186" x2="186" y1="131.47" y2="146.63" gradientUnits="userSpaceOnUse" xlink:href="#o"/><linearGradient id="k" x1="382.28" x2="393.31" y1="251.39" y2="313.76" gradientUnits="userSpaceOnUse"><stop stop-color="#1c8045" offset="0"/><stop stop-color="#08261f" offset="1"/></linearGradient><filter id="v" x="-.27063" y="-.31108" width="1.5413" height="1.6249" color-interpolation-filters="sRGB"><feGaussianBlur stdDeviation="1.0423939"/></filter><linearGradient id="j" x1="191.24" x2="148.64" y1="96.694" y2="220.2" gradientUnits="userSpaceOnUse"><stop stop-color="#0c2519" offset="0"/><stop stop-color="#1b1b1b" offset="1"/></linearGradient><linearGradient id="i" x1="140.01" x2="137.27" y1="150.08" y2="294.29" gradientUnits="userSpaceOnUse"><stop stop-color="#0e3420" offset="0"/><stop stop-color="#1b1b1b" offset="1"/></linearGradient><linearGradient id="n" x1="253.25" x2="247.78" y1="285.68" y2="54.309" gradientUnits="userSpaceOnUse"><stop stop-color="#232323" offset="0"/><stop stop-color="#b0b0b0" offset="1"/></linearGradient></defs><path d="m0 95.04 9.5314-6.5904 5.0312-9.5905 14.289-9.3582 10.174 14.856 3.1976 16.466 6.9943 12.037 8.725-13.014 9.095-7.3513 65.34 72.977 45.823 2.5457 39.066-59.716 12.236-29.442 18.282-24.55 24.616 27.391 15.611 32.009 16.627 19.517 12.484-20.366 14.671-17.82 26.383 45.573 23.39 24.858 13.021 20.366 15.795-36.924 16.983-15.687 13.894-28.003 13.153 22.063 13.153 16.971 13.283-33.943 20.552-25.958 6.6022-19.213-1e-5 220.61-509.5-0.13544" fill="url(#n)"/><path d="m396.71 203.23 16.547-33.943 5.94 5.94 19.517-40.307 15.699 20.366 10.607-5.5157 12.304 10.183 19.093-50.066 5.94 14.001 10.183-16.123 5.5157 72.553" fill="#4d4d4d"/><path d="m0 123.04 5.94-18.669 5.3036 5.0914 4.6671-6.5764 7.6371 4.8793 7.425-9.1221 14.85 26.094 9.7586-9.1222 49.641 23.124 76.159 19.305 40.944-27.791 15.911-34.791 3.8186 3.6064 12.516-13.365 5.94 14.638 6.1521-7.2129 15.062 36.489 5.7279-3.1821 16.759 31.609 6.5764-11.244 7.425 6.3643 9.7586-29.912 8.4857 20.366 4.2428-8.2736 23.76 46.884 4.2429-8.6979 18.244 31.185-52.732 15.493-342.02-75.604" fill="#4d4d4d"/><rect width="508" height="285.75" fill="url(#p)"/><path d="m1.1429e-7 130.68 6.7886-28.427 25.457 32.246 8.0614-21.639 15.699 17.396 56.854-12.729 13.577-25.033 29.276 44.974 10.607-23.76 18.669 33.094 14.85-36.489 8.91 13.577 18.963-34.586 27.733 34.024 19.196-25.43 13.369 66.268 25.544 51.82c97.706 71.93-45.556 15.811-47.951 39.008l-265.6 30.754v-105.43" fill="url(#j)" style="mix-blend-mode:normal"/><path d="m0 210.91 10.801-51.903 17.701 27.901 5.7003-15.601 24.988 29.392 32.843-50.618 46.875 27.226 13.201-23.101 22.201 38.402 6.3003-16.201 8.4004 16.201 21.569-38.826 65.736 47.217 11.696 22.637-288.01 62.112z" fill="url(#i)" opacity=".613" style="mix-blend-mode:soft-light"/><g transform="rotate(-7.3067 164.46 858.56)"><path transform="translate(-2.045 84.168)" d="m236.64 131.47h-104.16l52.08-90.205z" fill="url(#a)"/><path transform="translate(-2.045 39.066)" d="m236.64 131.47h-104.16l52.08-90.205z" fill="url(#b)"/><path d="m236.64 131.47h-104.16l52.08-60.505z" fill="url(#c)" stroke-linecap="round" stroke-linejoin="round" stroke-miterlimit="2.3" stroke-width="7.358"/><path d="m144.25 146.63h76.956l-9.1661-15.153h-59.186z" fill="url(#d)" fill-opacity=".514"/><path d="m143.71 192.65h77.492l-12.643-22.116h-52.08z" fill="url(#e)" fill-opacity=".514"/><rect x="172.94" y="215.64" width="19.168" height="28.751" fill="url(#g)"/><path d="m172.94 225.64h19.168v-10.002l-19.168-1e-5z" fill="url(#f)"/></g><g transform="matrix(.80331 .074839 -.074839 .80331 105.68 25.203)" stroke-width="1.2395"><path transform="translate(-2.045 84.168)" d="m236.64 131.47h-104.16l52.08-90.205z" fill="url(#a)"/><path transform="translate(-2.045 39.066)" d="m236.64 131.47h-104.16l52.08-90.205z" fill="url(#b)"/><path d="m236.64 131.47h-104.16l52.08-60.505z" fill="url(#c)" stroke-linecap="round" stroke-linejoin="round" stroke-miterlimit="2.3" stroke-width="9.1201"/><path d="m144.25 146.63h76.956l-9.1661-15.153h-59.186z" fill="url(#d)" fill-opacity=".514"/><path d="m143.71 192.65h77.492l-12.643-22.116h-52.08z" fill="url(#e)" fill-opacity=".514"/><rect x="172.94" y="215.64" width="19.168" height="28.751" fill="url(#g)"/><path d="m172.94 225.64h19.168v-10.002l-19.168-1e-5z" fill="url(#f)"/></g><g><path d="m0 285.75 62.084-30.304 58.56-14.224 31.25-11.896 4.758 12.142 6.5999 7.7456 4.803-1.5432 56.72-12.727 63.63-27.369 27.612-1.7253 16.262 8.12 19.107-9.5505 17.788 2.0824 49.013-12.488 49.94-29.784 39.874-7.2435v128.76h-508" fill="url(#m)"/><path d="m0 284.7 100.98-22.911 23.76-11.88 16.971 23.76 77.22-30.549 28.427 8.91 73.826-41.58 14.85 39.459 37.761-28.003 44.126 4.2429 41.156-41.58 30.549 11.456 18.374-18.669-1e-5 108.4" fill="#0f483c" opacity=".41627" style="mix-blend-mode:soft-light"/><path d="m-1.5001 285.61 77.704-9.3005 24.001 3.0002 16.801-9.3005 20.101 10.501 39.902-8.1004 24.301-15.901 38.102 9.9005 25.501-13.801 7.2004 8.4004 40.948-18.182 16.955 30.782 14.701-21.001 12.001 3.9002 25.801-26.101 45.302 15.901 15.001-26.401 16.801 2.4001 5.7003-19.501 25.501 15.301 17.175-21.053v88.691" fill="#0f483c" opacity=".41627" style="mix-blend-mode:normal"/><path d="m212.46 285.75 79.448-13.783 33.519 9.3343 55.581-11.456 45.399 4.6671 51.763-34.791 29.83 9.7586-1e-5 36.27" fill="url(#k)"/><g transform="translate(5.9248 -8.0964)"><circle cx="161.87" cy="240.57" r="21.851" fill="#072228"/><g fill="#051519"><circle cx="161.87" cy="240.57" r="15.118"/><g transform="matrix(1.6137 0 0 1.6137 -98.353 -145.85)" stroke="#3ee256" stroke-linecap="round" stroke-linejoin="round" stroke-miterlimit="2.3"><rect transform="matrix(-1 .0010544 .50511 -.86305 0 0)" x="-303.8" y="-276.75" width="8.721" height="4.1301" fill="#3ee256" stroke-width=".88272"/><path d="m165.9 235.31v5.5169l-1.8809 3.222" fill="#051519" stroke-width=".81979"/><path d="m156.17 238.53v5.5169h7.8444" fill="#051519" stroke-width=".81979"/></g><g transform="matrix(1.884 0 0 1.8883 -141.79 -211.62)" filter="url(#v)" stroke="#3ee256" stroke-linecap="round" stroke-linejoin="round" stroke-miterlimit="2.3" style="mix-blend-mode:screen"><rect transform="matrix(-1 .0010544 .50511 -.86305 0 0)" x="-303.8" y="-276.75" width="8.721" height="4.1301" fill="#3ee256" stroke-width=".75522"/><path d="m165.9 235.31v5.5169l-1.8809 3.222" fill="none" stroke-width=".70138"/><path d="m156.17 238.53v5.5169h7.8444" fill="none" stroke-width=".70138"/></g></g></g></g><g transform="translate(30.973 1.2729)"><rect x="-30.973" y="-1.2729" width="431.6" height="285.75" fill="url(#t)" style="mix-blend-mode:overlay"/><g fill="none" stroke="#000" stroke-linecap="round" stroke-linejoin="round" stroke-miterlimit="2.3"><path d="m367.96 49.523s-16.944-10.778-22.314 3.892m-22.314 3.892s12.295-15.877 22.314-3.892" stroke-width="4.858"/><path d="m434.4 40.761s-11.987-16.111-22.235-4.3214m-22.235-4.3214s17.149-10.449 22.235 4.3214" stroke-width="7.358"/><path d="m389.82 64.126s-10.5-5.5332-13.828 1.9982m-13.828 1.9982s7.6194-8.1515 13.828-1.9982" stroke-width="2.758"/></g></g></svg>
