<?xml version="1.0" encoding="UTF-8"?>
<!-- Created with Inkscape (http://www.inkscape.org/) -->
<svg width="1920mm" height="1080mm" version="1.1" viewBox="0 0 1920 1080" xmlns="http://www.w3.org/2000/svg" xmlns:xlink="http://www.w3.org/1999/xlink">
 <defs>
  <linearGradient id="linearGradient34" x1="1104" x2="984.11" y1="607.26" y2="227.58" gradientUnits="userSpaceOnUse">
   <stop stop-color="#172717" offset="0"/>
   <stop stop-color="#0b0f0f" offset="1"/>
  </linearGradient>
  <linearGradient id="linearGradient36" x1="692.04" x2="816.59" y1="300.37" y2="267.53" gradientUnits="userSpaceOnUse">
   <stop stop-color="#191a1e" offset="0"/>
   <stop stop-color="#100e13" offset="1"/>
  </linearGradient>
  <linearGradient id="linearGradient38" x1="1252.2" x2="1252.2" y1="290.42" gradientUnits="userSpaceOnUse">
   <stop stop-color="#050408" offset="0"/>
   <stop stop-color="#000001" offset=".81036"/>
   <stop offset="1"/>
  </linearGradient>
  <linearGradient id="linearGradient41" x1="1696.2" x2="1871.6" y1="292.44" y2="342.36" gradientUnits="userSpaceOnUse">
   <stop stop-color="#191a1e" offset="0"/>
   <stop stop-color="#100e13" offset="1"/>
  </linearGradient>
  <linearGradient id="linearGradient58" x1="160.26" x2="315.8" y1="740.58" y2="780.8" gradientUnits="userSpaceOnUse">
   <stop stop-color="#191a1e" offset="0"/>
   <stop stop-color="#100e13" offset="1"/>
  </linearGradient>
  <linearGradient id="linearGradient66" x1="490.74" x2="610.28" y1="707.42" y2="707.42" gradientUnits="userSpaceOnUse">
   <stop stop-color="#17140e" offset="0"/>
   <stop stop-color="#282a1a" offset=".78883"/>
   <stop stop-color="#201c14" offset=".99656"/>
  </linearGradient>
  <linearGradient id="linearGradient69" x1="610.28" x2="645.1" y1="707.42" y2="707.42" gradientUnits="userSpaceOnUse">
   <stop stop-color="#79af4f" offset="0"/>
   <stop stop-color="#79af4f" offset=".65715"/>
   <stop stop-color="#459647" offset="1"/>
  </linearGradient>
 </defs>
 <g>
  <path d="m0 0h1920v1080h-1920v-1080" fill="url(#linearGradient38)"/>
  <path d="m968.63 121.9-38.042 86.381-8.493-38.811-14.996 52.719-33.343-2.3373-612.95 123.87-23.853-39.308-11.791 27.513-20.146-71.514-24.767 99.589-11.015-22.145-10.859 26.566-46.25 9.3467-17.474-33.478-10.12 28.098-27.619-70.632-12.529 89.702v5.2e-4l-44.381 8.9684v683.58h1920v-862.96l-88.365 9.1679-9.324-16.309-6.8709 17.99-18.037-34.308-7.8466 23.46-21.354-59.12-21.142 77.063-265.06 27.501-228.45-16.015-6.7283-25.264-8.2496 15.55-2.159-79.409-36.915 73.258-3.7848-25.013-17.84 35.572-175.25-12.286-10.697-46.897-14.472 35.059-8.8341-95.148z" fill="url(#linearGradient34)"/>
  <path d="m158.36 1080 186.92-123.46 184.91-282.07 394.32-62.927 35.487-118.35 19.025 104.36 19.652-57.549 9.9352 52.756 336.06-139.82 236.24-13.1 212.82-83.03 126.26 49.465v673.73z" fill="#1b381b"/>
  <path d="m402.51 1080 216.8-200.8 66.661 12.189 36.824-125.42 22.163 101.04 20.906-59.481 17.49 59.481 61.353-178.96 24.692 151.51 260.08-171.93 304.67-82.546 13.705-79.213 16.419 73.652 237.57-139.68 218.15 37.236v602.93z" fill="#2c4f22"/>
  <path d="m873.75 1080 173.33-136.49 267.38-68.143 16.782-84.435 15.879 75.079 26.234-143.81 28.262 141.31 121.08 15.75 268.65-127.66 128.65 39.762v288.63" fill="#3d6d2f"/>
  <path d="m2130.1 120.4c-21.532 0-43.064 5.5696-62.357 16.709-38.586 22.278-61.226 65.247-62.357 106.8-2.5016 91.907 70.312 177.03 124.71 247.22 60.184-74.224 128.36-154.11 124.71-247.22-1.5821-40.342-23.77-84.524-62.356-106.8-19.293-11.139-40.825-16.709-62.357-16.709zm0 54.476c38.127 2e-5 69.035 30.908 69.035 69.035s-30.908 69.035-69.035 69.035c-38.127-2e-5 -69.035-30.908-69.035-69.035s30.908-69.035 69.035-69.035z" stroke="#000" stroke-linecap="round" stroke-linejoin="round" stroke-width="4.1131"/>
 </g>
 <g transform="matrix(1.1843 0 0 1.1843 -196.96 -95.752)">
  <path d="m373.62 447.89 46.781-147.15 16.476 7.3925 30.703-44.773 77.469-48.827 16.98-26.345 40.389 19.071 125.07-49.892 78.303 75.724 21.602 68.872 11.842-0.70705 36.437 81.211-42.877 38.055-53.441 5.2366-134.84 63.536-154.26-25.469-87.711 5.8373z" fill="#303941"/>
  <path d="m727.48 157.37-19.083 69.441-16.365 3.1746 19.881 22.567-0.57682 41.464 20.682 18.229-24.207 54.032 22.961 24.162-3.8122 36.649 15.017 16.279 37.37-17.609 53.441-5.2366 42.877-38.055-36.437-81.211-11.842 0.70705-21.602-68.872-78.303-75.724" fill="url(#linearGradient36)"/>
  <g fill="#191a1e">
   <path d="m562.03 188.19 30.91 28.855 15.106 73.037 6.5443-17.86 10.055-10.97-10.745-15.167 4.3372-29.039-15.819-9.7835z"/>
   <path d="m420.4 300.74 16.971 36.879-1.8789 22.151 9.3992 21.575 5.0714-15.905 7.4608-27.684-15.099-12.137z"/>
   <path d="m505.33 300.74c0.30305 0 15.733 31.01 15.733 31.01l-13.148 46.66 6.0398 10.182-5.754 26.492 21.931-24.774-3.6998-15.101 18.576-18.409-9.7965-15.758 8.1646-34.346z"/>
  </g>
 </g>
 <g>
  <path d="m435.69 462.14 12.783-45.438 7.0588 48.715 6.7716-17.757 12.657 20.965" fill="#0d1310"/>
  <path d="m587.05 473.93c0.88643-0.41766 5.4547-113.78 5.4547-111.06 0 2.718 22.833 97.73 22.833 97.73l1.5793-40.391 12.912 33.563z" fill="#0e1611"/>
  <path d="m1089.3 410.03 65.047-108.26 21.361 7.0956 41.077-37.503 34.295 1.0783 63.491-77.186 61.789-15.303 62.315-63.711 32.729 8.0241 76.066-26.825 65.534 95.622 49.364-1.5985 37.024 61.708 83.345 30.942 78.594 34.996 10.298 23.253-68.03 54.109-131.38-11.555-122.81 25.702-204.84-20.453-162.89 72.734-48.612-44.148z" fill="#303941"/>
 </g>
 <path d="m0 1080v-473.1l211.05 30.027-87.723-94.557 463.31-26.563s78.994 468.02 62.512 458.93c-16.483-9.0828-100.18-67.694-100.18-67.694l27.003 172.96z" fill-opacity=".42245"/>
 <g fill="#191a1e">
  <path d="m1154.3 301.76 10.827 27.464-7.6605 74.216 22.145-21.201-7.3442-12.016 23.288-35.244-19.894-26.123z"/>
  <path d="m1216.7 271.36 37.682 36.12-16.872 27.293 12.354 22.032-14.452 40.576 22.064-21.681 13.824-29.424-12.003-13.019 25.849-42.43-34.15-18.388z"/>
  <path d="m1314.5 195.25 44.525 25.771 17.264-41.074-61.789 15.303"/>
 </g>
 <g transform="translate(89.219 -6.5454)">
  <rect transform="matrix(.91107 -.41224 .73035 .68307 0 0)" x="122.05" y="1073.2" width="299.23" height="449.76"/>
  <path d="m895 682.76v39.449l328.38 307.77 0.099-40.004" fill="#0b1010"/>
  <path d="m1496.1 866.62 1e-4 40.163-272.72 123.2 0.099-40.004z" fill="#0b1010"/>
  <path d="m914.94 701.4 272.62-123.36 289.34 270.61-273.35 122.68z" fill="#8d9c7a"/>
  <path d="m1129.2 692.86 78.789 163.65 9.7757-62.731 83.741 21.555z" fill="#0b1010"/>
  <path transform="translate(-89.219 6.5454)" d="m1037.7 765.75 49.624-71.746-20.459 99.081 41.036-28.621-11.123 43.404 61.237-43.49-20.405 95.013z" fill="#2c4f22"/>
  <path transform="translate(-89.219 6.5454)" d="m1344.5 634.8 30.073-20.846-6.7563 42.654 60.756 56.824 28.059-19.424-15.134 31.513 32.024-7.1146-5.8039 17.628 45.203-17.628-16.993 58.022z" fill="#3e7131"/>
  <path transform="translate(-89.219 6.5454)" d="m1190.6 910.28 63.742-34.946-46.483 51.121 49.738-25.58-11.57 48.949 65.059-29.763-16.046 88.104z" fill="#3d6d2f"/>
 </g>
 <g>
  <path d="m1438.6 116.23 4.1858 20.398-12.136 30.82 12.954 43.433-20.545 47.472 7.6013 12.855 32.482-31.44 17.247-43.498-13.731-23.457 4.6716-48.56z" fill="#303941"/>
  <path d="m1509.4 110.85 26.968 21.914 24.893-16.704-13.828-18.623z" fill="#191a1e"/>
  <path d="m1580.2 145.24-32.437 68.548 22.046 100.66 15.756 19.893-18.22 39.438 54.318-51.35-18.736-29.174 11.303-16.99-9.578-26.502 4.5492-32.72 3.7676-23.988z" fill="#191a1e"/>
  <path d="m1662.3 191.46-1.8855 52.518-14.767 45.713 43.846 56.517-17.345 38.705 131.38 11.555 68.03-54.109-10.298-23.253-78.594-34.996-83.345-30.942z" fill="url(#linearGradient41)"/>
 </g>
 <g fill="#191a1e">
  <path d="m1301.7 409.29 12.797-39.997 22.139-28.625 8.901-39.124-0.9796 88.609z"/>
  <path d="m1133 418.74 8.6778-32.279-4.6983-22.667-25.861 50.586z"/>
  <path d="m1181.6 462.89 5.0558-28.793 12.927-17.723 4.4112-27.889 7.3289 32.14 51.722 5.8992-81.445 36.367"/>
 </g>
 <path d="m1882.1 220.98 8.2013-27.16 7.2609 25.555 22.461-65.184v62.854z" fill="#121e14"/>
 <path d="m1553.6 535.73 0.4515 363.53-97.977-69.006 39.59 249.75h-875.12l183.02-74.893-104.95-85.571 315.9-83.778-88.419-79.937 370.46-56.377-104.68-85.555 361.73-78.155" fill-opacity=".42353"/>
 <g>
  <path d="m1416.2 397.38 9.874-32.779 6.3592 23.889 33.637-76.91 3.3122 84.888 34.987-33.685-9.523 42.387z" fill="#142115"/>
  <path d="m1146.9 431.31 3.9057-12.57 6.559 22.074 24.306-49.547-6.7992 65.446z" fill="#131f14"/>
  <path d="m1240.3 436.68 2.3516-27.389s5.6951 9.449 8.2876 9.449c2.5926 0 30.958-84.377 30.958-84.377l9.7399 63.011 7.0995-12.993 14.378 20.782z" fill="#131f14"/>
  <path d="m1617.4 396.37 4.2551-19.112 3.7409 9.8412s8.4282-53.945 9.2761-50.402c0.8479 3.5427 13.939 39.504 13.939 39.504s8.3707-24.089 8.2174-22.868c-0.1532 1.2212 8.7157 32.961 8.7157 32.961z" fill="#162416"/>
  <path d="m0 718.4 57.491-71.677 62.184 29.016 82.278-47.344 118.56 173.04-162.15 80.68-91.7 90.171-66.66-60.097z" fill="#303941"/>
  <path d="m57.491 646.72 33.355 55.718-8.6483 45.079 16.032 20.239-0.06166 22.823 24.241-30.666-13.726-28.232 10.993-55.945-62.184-29.016" fill="#191a1e"/>
  <path d="m160.81 652.07-0.55863 79.192 33.484 39.477-16.975 51.183 40.602 30.836 103.14-51.321-118.56-173.04-41.139 23.672" fill="url(#linearGradient58)"/>
 </g>
 <g fill="#191a1e">
  <path d="m66.66 972.29 16.341-136.93 29.316 32.695 10.092-7.0245 35.951 21.09z"/>
  <path d="m16.406 697.95 12.377 46.793-10.747 53.163-18.036-59.692v-19.809z"/>
  <path d="m0 876.78 21.986 55.225-21.986-19.821z"/>
 </g>
 <path d="m1004.2 694.86 272.62-123.36 19.692 18.417-274.12 121.96-18.197-17.019" fill="#1f2116"/>
 <path d="m1266.3 577.9 1.5725 1.8461-3.2864 1.9978 12.236 14.366 10.422-6.3356-12.236-14.366-3.2864 1.9978-1.5724-1.8461z" fill="#326f31"/>
 <path d="m1244 599.91 5.7693-2.9749m5.0708 1.5384 2.559 5.5017m-0.6045-10.663 5.7692-2.9749m-13.33-3.9175 2.5591 5.5017m7.8868-0.0968a6.6874 7.2357 48.312 0 1-3.5596 9.3993 6.6874 7.2357 48.312 0 1-9.2351-2.8018 6.6874 7.2357 48.312 0 1 3.5597-9.3992 6.6874 7.2357 48.312 0 1 9.235 2.8018z" fill="none" stroke="#00565c" stroke-linecap="round" stroke-width="2.4022"/>
 <g>
  <text transform="matrix(.78993 -.45535 .78683 .81237 0 0)" x="391.26852" y="1312.1492" fill="#000000" font-family="Rubik" font-size="42.333px" stroke-linecap="round" stroke-width="3" xml:space="preserve"><tspan x="391.26852" y="1312.1492" fill="#000000" font-family="Rubik" font-size="42.333px" stroke-width="3">50m</tspan></text>
  <rect transform="rotate(-36.063)" x="610.28" y="580.72" width="34.815" height="253.4" fill="url(#linearGradient69)"/>
  <rect transform="rotate(-36.063)" x="490.74" y="598.72" width="119.55" height="217.4" fill="url(#linearGradient66)"/>
 </g>
</svg>
