<?xml version="1.0" encoding="UTF-8"?>
<!-- Created with Inkscape (http://www.inkscape.org/) -->
<svg width="1920" height="1080" version="1.1" viewBox="0 0 508 285.75" xmlns="http://www.w3.org/2000/svg" xmlns:xlink="http://www.w3.org/1999/xlink">
 <defs>
  <linearGradient id="linearGradient2" x2="508" y1="285.75" gradientUnits="userSpaceOnUse">
   <stop stop-color="#aa4343" stop-opacity="0" offset="0"/>
   <stop stop-color="#aa4343" stop-opacity=".16033" offset="1"/>
  </linearGradient>
  <linearGradient id="linearGradient4" x2="150.15" y1="142.88" y2="336.28" gradientUnits="userSpaceOnUse">
   <stop stop-color="#a8259d" offset="0"/>
   <stop stop-color="#100f2f" offset="1"/>
  </linearGradient>
  <linearGradient id="linearGradient12" x1="157.68" x2="149.21" y1="294.5" y2="151.19" gradientUnits="userSpaceOnUse">
   <stop stop-color="#ff16ef" stop-opacity=".5213" offset="0"/>
   <stop stop-color="#48b0bf" stop-opacity="0" offset="1"/>
  </linearGradient>
  <filter id="filter12" x="-.60765" y="-.60765" width="2.2153" height="2.2153" color-interpolation-filters="sRGB">
   <feGaussianBlur stdDeviation="11.675431"/>
  </filter>
  <filter id="filter12-4" x="-.60765" y="-.60765" width="2.2153" height="2.2153" color-interpolation-filters="sRGB">
   <feGaussianBlur stdDeviation="11.675431"/>
  </filter>
  <filter id="filter12-0" x="-.60765" y="-.60765" width="2.2153" height="2.2153" color-interpolation-filters="sRGB">
   <feGaussianBlur stdDeviation="11.675431"/>
  </filter>
  <filter id="filter12-1" x="-.60765" y="-.60765" width="2.2153" height="2.2153" color-interpolation-filters="sRGB">
   <feGaussianBlur stdDeviation="11.675431"/>
  </filter>
  <filter id="filter12-6" x="-.60765" y="-.60765" width="2.2153" height="2.2153" color-interpolation-filters="sRGB">
   <feGaussianBlur stdDeviation="11.675431"/>
  </filter>
  <filter id="filter12-5" x="-.60765" y="-.60765" width="2.2153" height="2.2153" color-interpolation-filters="sRGB">
   <feGaussianBlur stdDeviation="11.675431"/>
  </filter>
  <filter id="filter12-07" x="-.60765" y="-.60765" width="2.2153" height="2.2153" color-interpolation-filters="sRGB">
   <feGaussianBlur stdDeviation="11.675431"/>
  </filter>
  <filter id="filter12-3" x="-.60765" y="-.60765" width="2.2153" height="2.2153" color-interpolation-filters="sRGB">
   <feGaussianBlur stdDeviation="11.675431"/>
  </filter>
 </defs>
 <rect width="508" height="285.75" fill="url(#linearGradient2)" fill-rule="evenodd"/>
 <g fill-rule="evenodd">
  <path d="m78.361 123.35a118.57 118.57 0 0 0-78.361 29.676v132.73h188.52a118.57 118.57 0 0 0 8.4072-43.837 118.57 118.57 0 0 0-118.57-118.57z" fill="url(#linearGradient4)" stroke-linecap="round" stroke-width=".2749"/>
  <g fill="#f4f378">
   <path d="m305.54 81.484c-0.99774-4.4774-3.8188-9.8097-6.7629-12.783-1.4728-1.4875-4.0481-3.3007-5.6096-3.9496l-0.99142-0.41201 1.3486-0.64631c5.3256-2.5522 9.3107-7.7077 11.52-14.903 0.39257-1.2787 0.75866-2.4557 0.81346-2.6156 0.0548-0.15984 0.3353 0.53764 0.6233 1.55 2.1862 7.6844 6.11 13.082 11.467 15.774l1.6625 0.83547-1.4687 0.72458c-5.1409 2.5362-8.8488 7.3-11.168 14.349-0.47269 1.4365-0.85947 2.7421-0.85947 2.9014 0 0.69392-0.34664 0.19604-0.57408-0.82452z" opacity=".76378"/>
   <path d="m117.43 35.332c-0.35837-1.6082-1.3716-3.5234-2.4291-4.5914-0.529-0.53427-1.454-1.1855-2.0148-1.4186l-0.3561-0.14798 0.48441-0.23215c1.9129-0.91671 3.3442-2.7684 4.1377-5.353 0.141-0.45929 0.2725-0.88204 0.29218-0.93945 0.0197-0.05741 0.12043 0.19311 0.22388 0.55671 0.78525 2.7601 2.1946 4.6988 4.1186 5.6657l0.59713 0.30008-0.52754 0.26026c-1.8465 0.91093-3.1783 2.622-4.0115 5.1539-0.16977 0.51596-0.3087 0.98492-0.3087 1.0421 0 0.24924-0.1245 0.0704-0.2062-0.29615z" opacity=".76378"/>
   <path d="m51.968 100.35c-0.73249-3.2871-2.8036-7.2018-4.965-9.3847-1.0813-1.092-2.9719-2.4232-4.1183-2.8996l-0.72785-0.30247 0.99011-0.4745c3.9098-1.8737 6.8354-5.6586 8.4573-10.941 0.28821-0.93876 0.55698-1.8029 0.59721-1.9202 0.0403-0.11735 0.24616 0.39471 0.4576 1.1379 1.605 5.6415 4.4856 9.6042 8.4183 11.581l1.2205 0.61336-1.0783 0.53195c-3.7742 1.8619-6.4963 5.3593-8.1993 10.534-0.34702 1.0546-0.63098 2.0131-0.63098 2.13 0 0.50945-0.25448 0.14396-0.42146-0.60532z" opacity=".76378"/>
   <path d="m270.67 26.06c-0.65623-2.9448-2.5117-6.452-4.448-8.4076-0.96868-0.97834-2.6625-2.1709-3.6895-2.5977l-0.65207-0.27098 0.88702-0.4251c3.5028-1.6786 6.1238-5.0695 7.5768-9.8021 0.2582-0.84102 0.49899-1.6152 0.53503-1.7203 0.0361-0.10509 0.22053 0.35361 0.40995 1.0194 1.4379 5.0541 4.0186 8.6042 7.5419 10.375l1.0934 0.5495-0.96601 0.47657c-3.3812 1.6681-5.82 4.8013-7.3456 9.4376-0.31089 0.94482-0.56529 1.8036-0.56529 1.9083 0 0.4564-0.22798 0.12897-0.37758-0.5423z" opacity=".76378"/>
   <path d="m181.44 64.578c-0.63933-2.869-2.447-6.2859-4.3335-8.1912-0.94374-0.95314-2.5939-2.115-3.5945-2.5308l-0.63528-0.264 0.86419-0.41415c3.4126-1.6354 5.9661-4.939 7.3817-9.5498 0.25156-0.81937 0.48615-1.5736 0.52126-1.676 0.0351-0.10238 0.21485 0.34451 0.3994 0.99318 1.4009 4.924 3.9151 8.3827 7.3477 10.108l1.0653 0.53535-0.94113 0.4643c-3.2942 1.6251-5.6701 4.6777-7.1565 9.1946-0.30289 0.92048-0.55073 1.7571-0.55073 1.8591 0 0.44465-0.22212 0.12564-0.36786-0.52834z" opacity=".76378"/>
   <path d="m164.01 114.45c-0.40369-1.8116-1.5451-3.969-2.7362-5.172-0.59589-0.60183-1.6378-1.3355-2.2696-1.598l-0.40113-0.16669 0.54566-0.2615c2.1548-1.0326 3.7671-3.1185 4.6609-6.0299 0.15883-0.51736 0.30696-0.99358 0.32913-1.0582 0.0222-0.0647 0.13566 0.21753 0.25218 0.62712 0.88455 3.1091 2.4721 5.293 4.6394 6.3822l0.67264 0.33804-0.59424 0.29316c-2.08 1.0261-3.5802 2.9536-4.5187 5.8056-0.19125 0.58121-0.34774 1.1095-0.34774 1.1739 0 0.28076-0.14025 0.0793-0.23227-0.3336z" opacity=".76378"/>
   <path d="m246.75 103.95c-0.56014-2.5136-2.1439-5.5073-3.7967-7.1766-0.82684-0.83508-2.2726-1.853-3.1492-2.2174l-0.55659-0.2313 0.75714-0.36285c2.9898-1.4328 5.2271-4.3272 6.4673-8.3669 0.2204-0.71788 0.42593-1.3787 0.45669-1.4684 0.0308-0.0897 0.18824 0.30184 0.34993 0.87017 1.2274 4.3141 3.4302 7.3444 6.4375 8.8557l0.93333 0.46904-0.82456 0.40679c-2.8861 1.4238-4.9678 4.0983-6.27 8.0557-0.26537 0.80647-0.48252 1.5394-0.48252 1.6288 0 0.38958-0.1946 0.11009-0.32229-0.46289z" opacity=".76378"/>
   <path d="m254.74 146.41c-0.34708-1.5575-1.3284-3.4124-2.3525-4.4468-0.51233-0.51744-1.4082-1.1482-1.9514-1.3739l-0.34487-0.14332 0.46914-0.22483c1.8526-0.88782 3.2388-2.6812 4.0073-5.1843 0.13656-0.44482 0.26391-0.85425 0.28298-0.90986 0.0191-0.0556 0.11664 0.18703 0.21682 0.53918 0.7605 2.6731 2.1254 4.5507 3.9888 5.4872l0.57832 0.29062-0.51092 0.25206c-1.7883 0.88223-3.0781 2.5394-3.885 4.9915-0.16443 0.49971-0.29898 0.95388-0.29898 1.0093 0 0.24139-0.12058 0.0682-0.1997-0.28681z" opacity=".76378"/>
  </g>
  <path d="m0 244.45 38.013 2.5126 40.165-2.1458 34.261-6.4794 63.432-7.8862 34.955-6.7528 25.964-7.9818 9.1703-15.952-3.3467-10.297-41.452-11.352-22.653 0.32314c-1.6668-2.7458-4.1217-6.3161-9.411-12.851l32.66-8.7833 28.523 3.4714 29.06 7.5151 31.036 23.468 4.7877 26.144-11.55 38.829s-34.562 19.223-36.803 20.055c-2.2408 0.83267-94.862 5.0634-94.862 5.0634l-81.619-11.74-33.506-4.3298-36.826-6.9778" fill="url(#linearGradient12)"/>
  <g>
   <path d="m48.562 166.49s6.4863-18.34 21.023-20.562c14.537-2.2223 26.411 18.345 26.411 18.345s-15.589 21.127-30.287 13.194c-14.699-7.9329-17.146-10.977-17.146-10.977z" opacity=".23054"/>
   <path d="m84.983 179.52 14.97-13.253s6.9164-2.48 12.058 5.9975c5.1416 8.4776-4.43 14.534-10.314 12.52-5.8844-2.0144-16.714-5.2643-16.714-5.2643z" opacity=".23054"/>
   <path d="m94.018 151.5c6.4468 8.7898 6.4468 8.7898 6.4468 8.7898s8.1074 4.8185 11.172 3.1521c3.0648-1.6664 6.2601-15.784-2.0204-12.936-8.2805 2.8483-15.599 0.99391-15.599 0.99391z" opacity=".23054"/>
   <path d="m10.13 196.03s27.273-9.8477 33.974 9.6957c6.7013 19.543 6.4556 42.651-12.465 33.672-18.921-8.9794-25.794-4.7675-20.81-18.96 4.9842-14.192-0.69891-24.408-0.69891-24.408z" opacity=".23054"/>
   <path d="m44.456 196.45s9.3824 24.093 7.2923 34.449c-2.09 10.356 14.756 3.6168 14.756 3.6168s18.901-21.229 10.147-30.003c-8.7538-8.7738-32.195-8.0628-32.195-8.0628z" opacity=".23054"/>
  </g>
  <g fill="#f5f19a">
   <circle transform="matrix(.61224 0 0 .61224 20.066 33.993)" cx="52.172" cy="87.805" r="23.057" filter="url(#filter12)" opacity=".35485" style="mix-blend-mode:normal"/>
   <circle transform="matrix(.61224 0 0 .61224 221.83 86.317)" cx="52.172" cy="87.805" r="23.057" filter="url(#filter12-4)" opacity=".35485" style="mix-blend-mode:normal"/>
   <circle transform="matrix(.61224 0 0 .61224 86.441 -25.139)" cx="52.172" cy="87.805" r="23.057" filter="url(#filter12-0)" opacity=".35485" style="mix-blend-mode:normal"/>
   <circle transform="matrix(.61224 0 0 .61224 151.67 -1.2865)" cx="52.172" cy="87.805" r="23.057" filter="url(#filter12-1)" opacity=".35485" style="mix-blend-mode:normal"/>
   <circle transform="matrix(.61224 0 0 .61224 133.62 53.765)" cx="52.172" cy="87.805" r="23.057" filter="url(#filter12-6)" opacity=".35485" style="mix-blend-mode:normal"/>
   <circle transform="matrix(.61224 0 0 .61224 215.95 42.301)" cx="52.172" cy="87.805" r="23.057" filter="url(#filter12-5)" opacity=".35485" style="mix-blend-mode:normal"/>
   <circle transform="matrix(.61224 0 0 .61224 243.28 -37.303)" cx="52.172" cy="87.805" r="23.057" filter="url(#filter12-07)" opacity=".35485" style="mix-blend-mode:normal"/>
   <circle transform="matrix(.73241 0 0 .73241 267.66 -.30241)" cx="52.172" cy="87.805" r="23.057" filter="url(#filter12-3)" opacity=".35485" style="mix-blend-mode:normal"/>
  </g>
 </g>
</svg>
